<?xml version="1.0" encoding="UTF-8" standalone="no"?>
<!-- Created with Inkscape (http://www.inkscape.org/) -->
<svg
   xmlns:dc="http://purl.org/dc/elements/1.1/"
   xmlns:cc="http://creativecommons.org/ns#"
   xmlns:rdf="http://www.w3.org/1999/02/22-rdf-syntax-ns#"
   xmlns:svg="http://www.w3.org/2000/svg"
   xmlns="http://www.w3.org/2000/svg"
   xmlns:xlink="http://www.w3.org/1999/xlink"
   xmlns:sodipodi="http://sodipodi.sourceforge.net/DTD/sodipodi-0.dtd"
   xmlns:inkscape="http://www.inkscape.org/namespaces/inkscape"
   width="64"
   height="64"
   id="svg3217"
   sodipodi:version="0.32"
   inkscape:version="0.46"
   sodipodi:docname="icon.folder.network.svg"
   inkscape:output_extension="org.inkscape.output.svg.inkscape"
   version="1.0"
   style="display:inline">
  <defs
     id="defs3219">
    <linearGradient
       id="linearGradient3210">
      <stop
         id="stop3212"
         offset="0"
         style="stop-color:#ffffff;stop-opacity:0" />
      <stop
         id="stop3214"
         offset="1"
         style="stop-color:#acabab;stop-opacity:1;" />
    </linearGradient>
    <linearGradient
       id="linearGradient4152">
      <stop
         style="stop-color:#ffffff;stop-opacity:1;"
         offset="0"
         id="stop4154" />
      <stop
         style="stop-color:#acabab;stop-opacity:1;"
         offset="1"
         id="stop4156" />
    </linearGradient>
    <inkscape:perspective
       sodipodi:type="inkscape:persp3d"
       inkscape:vp_x="0 : 32 : 1"
       inkscape:vp_y="0 : 1000 : 0"
       inkscape:vp_z="64 : 32 : 1"
       inkscape:persp3d-origin="32 : 21.333333 : 1"
       id="perspective3225" />
    <inkscape:perspective
       id="perspective3591"
       inkscape:persp3d-origin="372.04724 : 350.78739 : 1"
       inkscape:vp_z="744.09448 : 526.18109 : 1"
       inkscape:vp_y="0 : 1000 : 0"
       inkscape:vp_x="0 : 526.18109 : 1"
       sodipodi:type="inkscape:persp3d" />
    <linearGradient
       inkscape:collect="always"
       xlink:href="#linearGradient4152"
       id="linearGradient4166"
       x1="23.862328"
       y1="11.303422"
       x2="21.983887"
       y2="58.758259"
       gradientUnits="userSpaceOnUse" />
    <inkscape:perspective
       id="perspective2398"
       inkscape:persp3d-origin="372.04724 : 350.78739 : 1"
       inkscape:vp_z="744.09448 : 526.18109 : 1"
       inkscape:vp_y="0 : 1000 : 0"
       inkscape:vp_x="0 : 526.18109 : 1"
       sodipodi:type="inkscape:persp3d" />
    <linearGradient
       inkscape:collect="always"
       xlink:href="#linearGradient4152"
       id="linearGradient3208"
       x1="37.414642"
       y1="17.683659"
       x2="39.18634"
       y2="55.665409"
       gradientUnits="userSpaceOnUse" />
    <linearGradient
       inkscape:collect="always"
       xlink:href="#linearGradient4152"
       id="linearGradient3220"
       gradientUnits="userSpaceOnUse"
       x1="37.414642"
       y1="17.683659"
       x2="39.18634"
       y2="55.665409" />
    <linearGradient
       inkscape:collect="always"
       xlink:href="#linearGradient4152"
       id="linearGradient7860"
       gradientUnits="userSpaceOnUse"
       x1="37.414642"
       y1="17.683659"
       x2="39.18634"
       y2="55.665409"
       gradientTransform="matrix(1.1527175,0.3232525,0,1.1652342,-8.2754004,-12.648184)" />
    <linearGradient
       inkscape:collect="always"
       xlink:href="#linearGradient4152"
       id="linearGradient7863"
       gradientUnits="userSpaceOnUse"
       gradientTransform="matrix(1.1527175,0.3232525,0,1.1652342,-8.2754004,-12.648184)"
       x1="37.414642"
       y1="17.683659"
       x2="39.18634"
       y2="55.665409" />
    <linearGradient
       y2="39.868439"
       x2="46.813908"
       y1="3.8989179"
       x1="18.31048"
       gradientTransform="matrix(0.7609089,0,0,0.7103942,1.9826652,-4.3746376e-2)"
       gradientUnits="userSpaceOnUse"
       id="linearGradient3351"
       xlink:href="#linearGradient4152"
       inkscape:collect="always" />
    <linearGradient
       y2="39.868439"
       x2="46.813908"
       y1="3.8989179"
       x1="18.31048"
       gradientTransform="matrix(0.8977059,0,0,0.8381096,21.227884,17.031477)"
       gradientUnits="userSpaceOnUse"
       id="linearGradient3335"
       xlink:href="#linearGradient4152"
       inkscape:collect="always" />
    <linearGradient
       y2="39.868439"
       x2="46.813908"
       y1="3.8989179"
       x1="18.31048"
       gradientTransform="matrix(0.7609089,0,0,0.7103942,1.9826652,-4.3746376e-2)"
       gradientUnits="userSpaceOnUse"
       id="linearGradient3332"
       xlink:href="#linearGradient4152"
       inkscape:collect="always" />
    <linearGradient
       y2="39.868439"
       x2="46.813908"
       y1="3.8989179"
       x1="18.31048"
       gradientTransform="matrix(0.7609089,0,0,0.7103942,1.9826652,-4.3746376e-2)"
       gradientUnits="userSpaceOnUse"
       id="linearGradient3307"
       xlink:href="#linearGradient4152"
       inkscape:collect="always" />
    <linearGradient
       y2="39.868439"
       x2="46.813908"
       y1="3.8989179"
       x1="18.31048"
       gradientTransform="matrix(1.45484,0,0,1.3582573,-0.5512058,-3.6928468)"
       gradientUnits="userSpaceOnUse"
       id="linearGradient3304"
       xlink:href="#linearGradient4152"
       inkscape:collect="always" />
    <linearGradient
       y2="39.868439"
       x2="46.813908"
       y1="3.8989179"
       x1="18.31048"
       gradientTransform="matrix(1.45484,0,0,1.3582573,-0.5512058,-3.6928468)"
       gradientUnits="userSpaceOnUse"
       id="linearGradient3267"
       xlink:href="#linearGradient4152"
       inkscape:collect="always" />
    <linearGradient
       gradientUnits="userSpaceOnUse"
       y2="62.322315"
       x2="58.237587"
       y1="11.289592"
       x1="33.390312"
       id="linearGradient3181"
       xlink:href="#linearGradient4152"
       inkscape:collect="always" />
    <linearGradient
       y2="55.665409"
       x2="39.18634"
       y1="17.683659"
       x1="37.414642"
       gradientUnits="userSpaceOnUse"
       id="linearGradient3343"
       xlink:href="#linearGradient4152"
       inkscape:collect="always" />
    <linearGradient
       gradientUnits="userSpaceOnUse"
       y2="55.665409"
       x2="39.18634"
       y1="17.683659"
       x1="37.414642"
       id="linearGradient3341"
       xlink:href="#linearGradient4152"
       inkscape:collect="always" />
    <inkscape:perspective
       sodipodi:type="inkscape:persp3d"
       inkscape:vp_x="0 : 526.18109 : 1"
       inkscape:vp_y="0 : 1000 : 0"
       inkscape:vp_z="744.09448 : 526.18109 : 1"
       inkscape:persp3d-origin="372.04724 : 350.78739 : 1"
       id="perspective3339" />
    <linearGradient
       gradientUnits="userSpaceOnUse"
       y2="58.758259"
       x2="21.983887"
       y1="11.303422"
       x1="23.862328"
       id="linearGradient3337"
       xlink:href="#linearGradient4152"
       inkscape:collect="always" />
    <inkscape:perspective
       sodipodi:type="inkscape:persp3d"
       inkscape:vp_x="0 : 526.18109 : 1"
       inkscape:vp_y="0 : 1000 : 0"
       inkscape:vp_z="744.09448 : 526.18109 : 1"
       inkscape:persp3d-origin="372.04724 : 350.78739 : 1"
       id="perspective3335" />
    <inkscape:perspective
       id="perspective3333"
       inkscape:persp3d-origin="32 : 21.333333 : 1"
       inkscape:vp_z="64 : 32 : 1"
       inkscape:vp_y="0 : 1000 : 0"
       inkscape:vp_x="0 : 32 : 1"
       sodipodi:type="inkscape:persp3d" />
    <linearGradient
       id="linearGradient3327">
      <stop
         id="stop3329"
         offset="0"
         style="stop-color:#ffffff;stop-opacity:1;" />
      <stop
         id="stop3331"
         offset="1"
         style="stop-color:#acabab;stop-opacity:1;" />
    </linearGradient>
    <linearGradient
       id="linearGradient3321">
      <stop
         style="stop-color:#ffffff;stop-opacity:0"
         offset="0"
         id="stop3323" />
      <stop
         style="stop-color:#acabab;stop-opacity:1;"
         offset="1"
         id="stop3325" />
    </linearGradient>
  </defs>
  <sodipodi:namedview
     id="base"
     pagecolor="#ffffff"
     bordercolor="#666666"
     borderopacity="1.0"
     inkscape:pageopacity="0.0"
     inkscape:pageshadow="2"
     inkscape:zoom="6.065343"
     inkscape:cx="23.832901"
     inkscape:cy="25.679692"
     inkscape:current-layer="layer3"
     showgrid="true"
     inkscape:document-units="px"
     inkscape:grid-bbox="true"
     inkscape:window-width="1440"
     inkscape:window-height="845"
     inkscape:window-x="0"
     inkscape:window-y="33"
     showguides="true"
     inkscape:guide-bbox="true" />
  <metadata
     id="metadata3222">
    <rdf:RDF>
      <cc:Work
         rdf:about="">
        <dc:format>image/svg+xml</dc:format>
        <dc:type
           rdf:resource="http://purl.org/dc/dcmitype/StillImage" />
      </cc:Work>
    </rdf:RDF>
  </metadata>
  <g
     inkscape:groupmode="layer"
     id="layer3"
     style="opacity:1;display:inline">
    <g
       id="g7859"
       transform="translate(-0.3082449,1.5143257)">
      <path
         sodipodi:nodetypes="ccccscccccsccccc"
         id="path3196"
         d="M 5.9702401,2.4530803 L 16.557494,2.8316893 C 20.210713,2.8047941 23.553427,5.4614848 25.41564,8.7639786 L 39.762765,9.2383369 C 42.923182,9.3143436 46.237663,9.2655252 49.531534,9.3686911 C 51.005006,9.4148411 52.474354,9.4914048 53.923941,9.6231614 C 55.708254,9.8722521 57.242157,10.578033 57.149112,12.435575 C 57.229113,13.20753 57.337037,13.812975 57.368214,14.502496 C 57.646218,14.544214 58.02279,14.549764 58.60388,14.588039 C 61.818988,15.597386 62.0829,17.903802 61.866675,27.906553 C 61.635648,37.733858 61.146098,45.247341 60.80896,48.818211 C 60.537753,51.69076 59.252016,52.671488 55.799812,53.201107 L 11.807742,58.509581 C 7.2814347,58.696111 5.7491999,55.860383 5.2275493,51.783032 C 4.1389759,35.693457 4.2987107,22.646579 2.7108346,6.7064428 C 2.4870745,3.7149594 4.4164752,2.5603166 5.9702401,2.4530803 z"
         style="fill:#4d4d4d;fill-rule:evenodd;stroke:none;stroke-width:1px;stroke-linecap:butt;stroke-linejoin:miter;stroke-opacity:1" />
      <path
         sodipodi:nodetypes="cccccccccc"
         id="path3200"
         d="M 9.0255766,22.814311 C 8.4815315,17.468001 9.1326974,16.641623 13.370534,16.527129 L 55.013533,15.761448 C 58.18195,15.728922 60.519391,15.66814 60.473834,20.028788 C 60.51167,28.882749 60.180752,37.950863 59.601458,46.187695 C 59.517729,49.591219 59.335615,50.922136 56.647831,51.146407 L 13.375678,56.557377 C 8.2820759,57.277039 6.704357,54.812171 6.6953938,53.810823 C 7.3618582,55.10678 10.158226,56.009959 10.018614,50.339015 C 9.3726486,41.167798 9.6680852,34.050341 9.0255766,22.814311 z"
         style="fill:url(#linearGradient7863);fill-opacity:1;fill-rule:evenodd;stroke:none;stroke-width:1px;stroke-linecap:butt;stroke-linejoin:miter;stroke-opacity:1" />
    </g>
    <g
       style="opacity:1;display:inline"
       id="g3353"
       transform="matrix(0.476273,0,0,0.476273,28.538769,35.591934)">
      <g
         id="g3343">
        <g
           id="g3313"
           transform="translate(2.9409041,1.2442287)">
          <g
             transform="matrix(0.5441689,0,0,0.5441689,1.5956598,1.3273831)"
             id="g3272">
            <path
               style="fill:#4d4d4d;fill-opacity:1;fill-rule:evenodd;stroke:none;stroke-width:1px;stroke-linecap:butt;stroke-linejoin:miter;stroke-opacity:1"
               d="M 9.3732846,5.035329 L 57.398377,2.9222498 C 60.205588,2.7645845 61.872326,4.4476338 61.519341,6.5446713 L 60.013604,47.145978 C 59.628696,48.585252 59.586568,50.187736 56.764382,50.466531 L 6.9958048,44.881965 C 4.917279,44.670086 3.3732621,43.226118 3.5088343,41.712344 L 5.5693168,8.054013 C 5.4035652,6.5880758 7.8530136,4.8957104 9.3732846,5.035329 z"
               id="path3184"
               sodipodi:nodetypes="ccccccccc" />
            <path
               style="fill:#4d4d4d;fill-opacity:1;fill-rule:evenodd;stroke:none;stroke-width:1px;stroke-linecap:butt;stroke-linejoin:miter;stroke-opacity:1"
               d="M 18.724705,44.127293 C 21.117353,46.901117 21.741871,49.151662 20.896698,52.525887 L 37.367647,54.239886 C 38.292914,51.204617 37.794849,48.690186 36.643649,45.841292 L 18.724705,44.127293 z"
               id="path3359"
               sodipodi:nodetypes="ccccc" />
            <path
               sodipodi:type="arc"
               style="fill:#4d4d4d;fill-opacity:1;stroke:none;stroke-width:3.5;stroke-linecap:round;stroke-linejoin:round;stroke-miterlimit:4;stroke-dasharray:none;stroke-dashoffset:0;stroke-opacity:1"
               id="path3198"
               sodipodi:cx="22.452671"
               sodipodi:cy="40.755547"
               sodipodi:rx="16.797087"
               sodipodi:ry="4.9203587"
               d="M 39.249758,40.755547 A 16.797087,4.9203587 0 1 1 5.6555843,40.755547 A 16.797087,4.9203587 0 1 1 39.249758,40.755547 z"
               transform="matrix(1.230653,0.1157549,-0.1126023,1.3293068,5.5093421,-2.4602793)" />
          </g>
          <path
             style="fill:url(#linearGradient3341);fill-opacity:1;fill-rule:evenodd;stroke:none;stroke-width:1px;stroke-linecap:butt;stroke-linejoin:miter;stroke-opacity:1"
             d="M 7.207663,5.6610555 L 30.948761,4.5207342 C 32.300804,4.4462857 33.103557,5.2410097 32.933548,6.2312161 L 32.208338,25.402867 C 32.022954,26.082482 32.002664,26.839165 30.64341,26.970809 L 5.7572424,24.262546 C 5.2141866,24.30504 4.928567,23.551937 4.993863,22.837143 L 5.9862562,6.9439167 C 5.9064249,6.2517116 6.4754529,5.5951284 7.207663,5.6610555 z"
             id="path3186"
             sodipodi:nodetypes="ccccccccc" />
        </g>
        <g
           transform="matrix(0.6337768,0,0,0.6337768,20.963417,18.923517)"
           id="g3322">
          <path
             style="fill:#4d4d4d;fill-opacity:1;fill-rule:evenodd;stroke:none;stroke-width:1px;stroke-linecap:butt;stroke-linejoin:miter;stroke-opacity:1"
             d="M 9.3732846,5.035329 L 57.398377,2.9222498 C 60.205588,2.7645845 61.872326,4.4476338 61.519341,6.5446713 L 60.013604,47.145978 C 59.628696,48.585252 59.586568,50.187736 56.764382,50.466531 L 6.9958048,44.881965 C 4.917279,44.670086 3.3732621,43.226118 3.5088343,41.712344 L 5.5693168,8.054013 C 5.4035652,6.5880758 7.8530136,4.8957104 9.3732846,5.035329 z"
             id="path3324"
             sodipodi:nodetypes="ccccccccc" />
          <path
             style="fill:#4d4d4d;fill-opacity:1;fill-rule:evenodd;stroke:none;stroke-width:1px;stroke-linecap:butt;stroke-linejoin:miter;stroke-opacity:1"
             d="M 18.724705,44.127293 C 21.117353,46.901117 21.741871,49.151662 20.896698,52.525887 L 37.367647,54.239886 C 38.292914,51.204617 37.794849,48.690186 36.643649,45.841292 L 18.724705,44.127293 z"
             id="path3326"
             sodipodi:nodetypes="ccccc" />
          <path
             sodipodi:type="arc"
             style="fill:#4d4d4d;fill-opacity:1;stroke:none;stroke-width:3.5;stroke-linecap:round;stroke-linejoin:round;stroke-miterlimit:4;stroke-dasharray:none;stroke-dashoffset:0;stroke-opacity:1"
             id="path3328"
             sodipodi:cx="22.452671"
             sodipodi:cy="40.755547"
             sodipodi:rx="16.797087"
             sodipodi:ry="4.9203587"
             d="M 39.249758,40.755547 A 16.797087,4.9203587 0 1 1 5.6555843,40.755547 A 16.797087,4.9203587 0 1 1 39.249758,40.755547 z"
             transform="matrix(1.230653,0.1157549,-0.1126023,1.3293068,5.5093421,-2.4602793)" />
        </g>
        <path
           style="fill:url(#linearGradient3335);fill-opacity:1;fill-rule:evenodd;stroke:none;stroke-width:1px;stroke-linecap:butt;stroke-linejoin:miter;stroke-opacity:1"
           d="M 27.392238,23.761894 L 55.401535,22.416564 C 56.99665,22.328731 57.943722,23.266333 57.743149,24.434559 L 56.887559,47.05291 C 56.668847,47.854705 56.644909,48.747427 55.041288,48.902738 L 25.681059,45.707579 C 25.040372,45.757713 24.703403,44.869217 24.780438,44.025916 L 25.951245,25.27539 C 25.857061,24.458739 26.52839,23.684114 27.392238,23.761894 z"
           id="path3330"
           sodipodi:nodetypes="ccccccccc" />
      </g>
    </g>
  </g>
</svg>
